:SAMPLES-PER-SECOND 30
:FULLY-SPECIFIED
:DEGREES
93
root  -4.55826 18.9817 0.523634 79.3422 84.8923 28.1851
RightUpLeg  -22.3378 1.66979 -2.53559
RightLeg  75.1877 10.2664 -2.26116
RightFoot  -9.57752 -0.035744 1.56276
RightToes  1.16415e-010 -3.18055e-015 8.94531e-016
Spine  53.1183 -3.59101 -4.45709
Spine1  -17.1251 -6.01085 -3.99441
HEad  -39.6111 5.32814 12.3557
LeftShoulder1  0 -2.69403e-036 -1.28585e-037
LeftArm  7.60224 -11.2946 -75.1561
LeftForeArm  -11.9946 -62.5684 48.8833
LeftHand  -0.78215 2.61147 25.2175
RightShoulder  -2.48481e-017 0 -8.08114e-019
RightArm  12.2094 53.0834 90.9788
RightForeArm  6.79813 14.0584 -12.8807
RightHand  4.93399 -17.6625 -30.1357
LeftUpLeg  -51.2728 -10.796 -3.99459
LeftLeg  104.331 -10.072 -12.3362
LeftFoot  16.023 0.998205 -3.61675
LeftToes  4.502e-010 -1.85808e-011 5.37561e-011
94
root  -3.8503 19.2754 0.500855 51.4968 84.9166 0.454605
RightUpLeg  -25.8084 1.46603 -1.96298
RightLeg  80.2949 10.8513 0.0895926
RightFoot  -4.33016 -0.0692392 0.765121
RightToes  1.16415e-010 -3.18055e-015 8.94531e-016
Spine  53.2376 -3.38259 -4.27919
Spine1  -17.2432 -5.53905 -5.29109
HEad  -38.8106 6.75186 11.7715
LeftShoulder1  0 -2.69403e-036 -1.28585e-037
LeftArm  5.90766 -11.6689 -72.0682
LeftForeArm  -18.1225 -64.4088 52.3472
LeftHand  -0.78117 2.68594 25.7742
RightShoulder  -2.48481e-017 0 -8.08114e-019
RightArm  14.0032 51.8059 95.5849
RightForeArm  9.42193 12.8683 -11.0232
RightHand  5.42604 -18.2359 -32.3587
LeftUpLeg  -48.68 -8.86967 -2.9853
LeftLeg  101.416 -10.7136 -11.848
LeftFoot  16.0889 1.24751 -4.54622
LeftToes  4.502e-010 -1.85808e-011 5.37561e-011
95
root  -3.15357 19.5076 0.489453 29.1123 84.1362 -21.5479
RightUpLeg  -30.0145 1.24018 -1.33993
RightLeg  87.3829 10.9996 1.8952
RightFoot  -2.12541 -0.229333 2.37708
RightToes  1.16415e-010 -3.18055e-015 8.94531e-016
Spine  53.2239 -3.42272 -3.50532
Spine1  -17.284 -5.09074 -6.31392
HEad  -38.001 8.00981 10.9062
LeftShoulder1  0 -2.69403e-036 -1.28585e-037
LeftArm  3.92584 -15.2064 -68.6427
LeftForeArm  -21.524 -65.0075 53.4044
LeftHand  -0.735329 2.82098 25.8849
RightShoulder  -2.48481e-017 0 -8.08114e-019
RightArm  15.0697 50.342 99.6264
RightForeArm  12.0514 11.2589 -9.02711
RightHand  5.90973 -18.7696 -34.4111
LeftUpLeg  -45.9644 -7.1059 -1.96024
LeftLeg  98.7299 -11.2425 -11.5203
LeftFoot  16.6577 1.40064 -5.03137
LeftToes  4.502e-010 -1.85808e-011 5.37561e-011
96
root  -2.50084 19.6393 0.507009 14.132 83.2793 -36.1099
RightUpLeg  -35.0737 1.37892 -0.442957
RightLeg  95.3996 10.7136 3.30202
RightFoot  -1.57399 -0.320869 3.18615
RightToes  1.16415e-010 -3.18055e-015 8.94531e-016
Spine  53.0244 -3.52749 -2.56156
Spine1  -17.2345 -4.66619 -6.6548
HEad  -37.7563 9.37842 9.89122
LeftShoulder1  0 -2.69403e-036 -1.28585e-037
LeftArm  1.57979 -21.0345 -64.7117
LeftForeArm  -21.7237 -64.3969 51.7489
LeftHand  -0.621181 3.02593 25.0377
RightShoulder  -2.48481e-017 0 -8.08114e-019
RightArm  16.6773 48.7566 103.115
RightForeArm  13.898 9.67577 -7.30881
RightHand  6.33482 -19.2191 -36.1098
LeftUpLeg  -43.4553 -5.79133 -0.727845
LeftLeg  96.5819 -11.5464 -11.9868
LeftFoot  17.3268 1.05005 -3.62854
LeftToes  4.502e-010 -1.85808e-011 5.37561e-011
97
root  -1.87524 19.6642 0.586181 6.52699 82.9314 -43.159
RightUpLeg  -40.6071 1.61877 0.453587
RightLeg  103.287 9.88016 5.26759
RightFoot  -1.26657 -0.112474 1.10284
RightToes  1.16415e-010 -3.18055e-015 8.94531e-016
Spine  52.933 -3.37827 -2.28959
Spine1  -17.3724 -4.32985 -6.00259
HEad  -37.5636 10.6437 9.00715
LeftShoulder1  0 -2.69403e-036 -1.28585e-037
LeftArm  -0.897329 -27.782 -60.94
LeftForeArm  -19.5613 -62.3418 47.4079
LeftHand  -0.528674 3.18609 24.2703
RightShoulder  -2.48481e-017 0 -8.08114e-019
RightArm  18.289 46.8648 105.981
RightForeArm  15.2713 8.37235 -6.04437
RightHand  6.71989 -19.6143 -37.5675
LeftUpLeg  -40.8961 -5.40725 0.293898
LeftLeg  94.6844 -11.8193 -12.6814
LeftFoot  17.4769 0.922976 -3.14695
LeftToes  4.502e-010 -1.85808e-011 5.37561e-011
98
root  -1.22159 19.6085 0.716933 2.00711 83.667 -46.806
RightUpLeg  -46.2127 1.51169 1.46067
RightLeg  110.468 8.23955 7.98199
RightFoot  -1.40686 0.0600055 -0.592695
RightToes  1.16415e-010 -3.18055e-015 8.94531e-016
Spine  53.0846 -3.20438 -2.37961
Spine1  -17.5435 -4.18979 -4.03681
HEad  -36.8223 11.3008 8.22453
LeftShoulder1  0 -2.69403e-036 -1.28585e-037
LeftArm  -3.23045 -34.8177 -57.9222
LeftForeArm  -15.3268 -57.9329 40.4794
LeftHand  -0.556047 3.12399 24.3759
RightShoulder  -2.48481e-017 0 -8.08114e-019
RightArm  18.9898 44.6965 107.754
RightForeArm  16.6868 7.59686 -5.14272
RightHand  7.06544 -19.9446 -38.8694
LeftUpLeg  -37.9151 -6.19446 1.08
LeftLeg  92.6703 -12.1689 -13.1997
LeftFoot  17.3472 1.07719 -3.72419
LeftToes  4.502e-010 -1.85808e-011 5.37561e-011
99
root  -0.54911 19.5012 0.879626 -2.67632 85.4094 -50.2066
RightUpLeg  -51.7477 1.09872 2.632
RightLeg  116.826 5.99155 10.5088
RightFoot  -2.57563 -0.0505378 0.61767
RightToes  1.16415e-010 -3.18055e-015 8.94531e-016
Spine  53.4692 -3.38619 -2.36721
Spine1  -17.3047 -4.41059 -1.26021
HEad  -35.9034 11.5189 7.29381
LeftShoulder1  0 -2.69403e-036 -1.28585e-037
LeftArm  -5.0105 -42.1607 -55.087
LeftForeArm  -9.7534 -50.0158 32.3439
LeftHand  -0.733791 2.69896 24.8663
RightShoulder  -2.48481e-017 0 -8.08114e-019
RightArm  19.0596 42.6097 108.58
RightForeArm  18.3035 7.50673 -4.49617
RightHand  7.34822 -20.192 -39.9534
LeftUpLeg  -34.5518 -7.86341 1.78631
LeftLeg  90.6438 -12.5576 -13.5751
LeftFoot  17.2526 1.19333 -4.15995
LeftToes  4.502e-010 -1.85808e-011 5.37561e-011
100
root  0.0795171 19.2998 1.08059 -38.5427 87.8194 -84.3759
RightUpLeg  -56.6421 0.394085 3.65198
RightLeg  122.281 4.03049 11.6616
RightFoot  -3.2255 0.287783 -3.22001
RightToes  1.16415e-010 -3.18055e-015 8.94531e-016
Spine  54.1054 -3.98584 -2.73817
Spine1  -16.7153 -5.25919 1.61975
HEad  -35.4952 12.041 6.12181
LeftShoulder1  0 -2.69403e-036 -1.28585e-037
LeftArm  -5.70097 -49.4707 -51.4025
LeftForeArm  -5.41284 -39.0284 25.3336
LeftHand  -0.968043 2.06976 24.9422
RightShoulder  -2.48481e-017 0 -8.08114e-019
RightArm  19.0988 40.7725 109.381
RightForeArm  20.0443 7.93831 -4.11619
RightHand  7.57126 -20.3855 -40.7789
LeftUpLeg  -30.9754 -10.1631 2.14068
LeftLeg  88.9525 -12.9049 -13.9599
LeftFoot  17.1263 1.19262 -4.17691
LeftToes  4.502e-010 -1.85808e-011 5.37561e-011
